<?xml version="1.0" encoding="UTF-8"?>
<svg width="1388px" height="281px" viewBox="0 0 1388 281" version="1.1" xmlns="http://www.w3.org/2000/svg" xmlns:xlink="http://www.w3.org/1999/xlink">
    <!-- Generator: Sketch 50.2 (55047) - http://www.bohemiancoding.com/sketch -->
    <title>Group 6</title>
    <desc>Created with Sketch.</desc>
    <defs></defs>
    <g id="Welcome" stroke="none" stroke-width="1" fill="none" fill-rule="evenodd">
        <g id="Round-4—Home-" transform="translate(-28.000000, -132.000000)" fill="#231F20">
            <g id="Group" transform="translate(28.000000, 132.000000)">
                <g id="Group-3">
                    <g id="Group-6">
                        <path d="M636.472276,177.593437 L674.294,89.2601558 L712.028828,177.593437 L636.472276,177.593437 Z M807.419517,231.555594 L696.829172,0.919640643 L596.152276,228.068563 C588.519862,244.252146 577.904,255.588613 555.412276,266.896141 L628.825379,266.896141 C607.615379,255.588613 606.471241,245.568826 611.431586,231.316855 L629.679862,191.838173 L717.068828,191.838173 L736.446759,233.313578 C741.732966,246.017365 737.330207,260.327212 723.890207,266.896141 L841.034,266.896141 C819.809517,257.180203 814.617448,245.597764 807.419517,231.555594 Z" id="Fill-1"></path>
                        <path d="M890.721736,230.85515 L890.721736,45.7653354 L1078.22685,270 L1078.22685,41.2366575 C1078.22685,24.7424313 1081.62405,15.0267533 1102,5 L1034.49787,5 C1054.87382,15.0267533 1058.27102,24.7424313 1058.27102,41.2366575 L1058.27102,141.87314 L940.817748,5 L937.420549,5 L847,5 C867.375952,15.0267533 870.773151,25.0535066 870.773151,41.5694357 L870.773151,230.85515 C870.773151,247.349376 867.375952,257.065054 847,267.091807 L914.494887,267.091807 C894.111692,257.065054 890.721736,247.349376 890.721736,230.85515" id="Fill-4"></path>
                        <path d="M1210.59315,40.4445667 C1210.59315,24.2637181 1222.4674,14.5566556 1241.56315,14.5566556 C1294.13255,14.5566556 1313.2283,85.7249031 1313.2283,140.726769 C1313.2283,192.502591 1304.7405,257.182586 1242.40252,257.182586 C1222.4674,257.182586 1210.59315,249.095778 1210.59315,232.943863 L1210.59315,40.4445667 Z M1116.46028,266.896882 L1234.7758,266.896882 C1345.0232,266.896882 1387.44052,213.522504 1387.44052,140.726769 C1387.44052,67.9310329 1340.79015,4.84235975 1234.7758,4.84235975 L1116.46028,4.84235975 C1133.42142,9.71035758 1137.65446,19.3957203 1137.65446,33.9707806 L1137.65446,237.790161 C1137.65446,252.343521 1133.42142,262.050584 1116.46028,266.896882 Z" id="Fill-6"></path>
                        <path d="M244.642401,225.429157 L244.642401,132.169459 C244.642401,120.197126 247.613737,109.19474 263.753164,102.390633 L152.48026,102.390633 C168.612439,109.19474 171.583775,120.197126 171.583775,132.169459 L171.583775,225.429157 C171.583775,246.463982 160.973932,262.649071 131.238832,262.649071 C87.4949703,262.649071 73.0513791,230.271655 73.0513791,170.366559 L73.0513791,102.390633 C73.0513791,40.8786092 97.6917253,18.2223801 131.666414,18.2223801 C167.764521,18.2223801 188.998702,40.8786092 197.927204,76.484357 L235.721147,21.4434734 C207.696376,8.501193 180.512277,3 148.226176,3 C49.2661979,3 0,66.7631699 0,139.299295 C0,220.557706 47.5703624,273 135.065333,273 C193.252785,273 239.5404,259.399024 268,243.554141 C251.012655,243.554141 244.642401,236.742795 244.642401,225.429157" id="Fill-9"></path>
                        <path d="M400.817632,137.444222 L376.254466,137.444222 L376.254466,40.5278581 C376.254466,24.32072 388.10556,14.5920843 409.2827,14.5920843 C451.651449,14.5920843 461.39713,44.4091557 461.39713,76.8306867 C461.39713,109.252218 443.164676,137.444222 400.817632,137.444222 M464.464812,150.807494 C506.276459,144.343501 534.182242,110.485527 534.182242,79.3045605 L534.073715,79.3771081 C534.117126,78.5210462 534.247358,77.7012581 534.247358,76.8306867 C534.247358,26.576951 481.308127,4.85619381 411.402584,4.85619381 L286.437927,4.85619381 C302.543261,13.2862271 303.382532,23.6677914 303.382532,37.2777248 L303.382532,235.02077 C303.382532,248.630703 302.543261,259.019522 286.437927,267.435046 L393.199071,267.435046 C377.093737,259.019522 376.254466,248.630703 376.254466,235.02077 L376.254466,148.80518 L398.965447,149.349287 C445.856134,253.498649 491.097218,275.814296 554.230706,281.001451 C509.098148,244.800189 484.969088,207.046408 464.464812,150.807494" id="Fill-11"></path>
                    </g>
                </g>
            </g>
        </g>
    </g>
</svg>